<?xml version="1.0" encoding="utf-8" ?><svg xmlns="http://www.w3.org/2000/svg" xmlns:xlink="http://www.w3.org/1999/xlink" width="1114" height="743" viewBox="0 0 1114 743"><path fill="#1B5482" transform="matrix(0.446314 0 0 0.446514 0 -3.05176e-05)" d="M1469.56 702.517C1495.06 701.667 1537.57 704.07 1550.32 731.23C1561.41 755.758 1561.35 793.912 1541.72 814.201C1523.38 833.162 1486.66 829.785 1461.81 830.244C1439.48 830.757 1408.88 830.19 1391.09 814.979C1367.95 795.196 1367.41 744.122 1386.87 721.92C1406.26 699.795 1442.73 703.909 1469.56 702.517ZM1417.71 741.43C1410.33 756.791 1406.77 789.912 1425.76 796.639C1440.03 801.694 1474.2 798.991 1490.25 799.045C1517.74 798.301 1520.88 784.589 1519.54 760.021C1519.02 750.443 1516.22 744.764 1509.95 737.634L1509.36 736.989C1494.2 732.67 1460.82 733.015 1443.53 733.43C1432.57 734.136 1426.81 734.305 1417.71 741.43Z"/><path fill="#1B5482" transform="matrix(0.446314 0 0 0.446514 0 -3.05176e-05)" d="M1194.31 705.472L1266.28 705.659C1282.13 705.586 1304.22 704.443 1319.17 707.034C1365.95 715.137 1353.74 792.592 1353.96 828.27C1341.37 828.469 1328.23 828.232 1315.59 828.189C1315.07 813.519 1317.55 749.914 1310.4 742.229C1305.03 736.449 1294.79 735.623 1287.32 735.649C1282.23 735.668 1277.57 736.397 1273.97 740.375C1265.8 749.396 1269.4 782.112 1269.66 795.12C1269.84 806.175 1269.97 817.231 1270.03 828.288C1258.8 828.888 1244.06 828.463 1232.56 828.455C1232.65 815.27 1235.29 748.989 1229.62 742.543C1225.97 738.387 1219.07 737.066 1213.78 736.612C1206.35 735.974 1197.76 736.733 1192.06 742.048C1189.33 744.59 1188.58 747.634 1187.96 751.188C1186.5 759.594 1187.39 769.172 1187.4 777.717L1187.47 828.469C1174.86 829.201 1161.23 828.962 1148.51 828.96C1148.13 815.862 1148.45 802.358 1148.26 789.244C1147.65 746.406 1142.31 712.119 1194.31 705.472Z"/><path fill="#1B5482" transform="matrix(0.446314 0 0 0.446514 0 -3.05176e-05)" d="M1579.33 706.283C1599.08 705.1 1623.54 706.605 1643.98 706.198C1664.41 706.327 1683.11 704.68 1703.57 706.739C1740.78 710.483 1754.44 745.854 1736.43 776.575C1730.87 786.062 1716.22 789.555 1706.28 791.205C1710.45 797.279 1737 819.453 1745.79 828.653C1732.72 829.254 1710.37 829.056 1697.42 828.337L1659.37 792.008C1654.37 787.167 1643.56 778.939 1640.93 773.308C1645.3 763.185 1690.67 775.226 1701.78 762.584C1704.02 760.663 1705.85 758.077 1705.69 754.779C1704.53 731.427 1679.51 734.86 1664.87 734.888L1618.61 735.053C1618.11 766.227 1619.14 797.373 1618.57 828.429C1605.31 828.559 1592.05 828.608 1578.78 828.577C1577.92 810.178 1578.6 789.419 1578.77 770.85C1578.96 749.634 1578.58 727.374 1579.33 706.283Z"/><path fill="#1B5482" transform="matrix(0.446314 0 0 0.446514 0 -3.05176e-05)" d="M1833.95 706.293C1848.95 705.487 1870.06 705.85 1885.04 706.127C1903.91 731.487 1921.07 758.652 1938.73 784.881C1943.22 791.56 1967.61 822.417 1967.55 827.914C1961.74 829.993 1933.33 829.222 1925.25 829.173C1918.81 819.943 1911.54 808.929 1904.06 800.778C1883.65 801.06 1863.25 801.119 1842.85 800.955L1857.28 776.641C1866.91 776.059 1878.32 776.597 1888.58 776.139C1884.81 767.685 1866.52 738.607 1857.55 737.289C1846.28 743.856 1803.51 813.54 1792.55 828.496C1779.35 829.163 1761.39 828.897 1748.24 828.722C1759.51 810.849 1823.08 714.663 1833.95 706.293Z"/><path fill="#1B5482" transform="matrix(0.446314 0 0 0.446514 0 -3.05176e-05)" d="M964.422 706.228C977.051 706.163 989.902 705.964 1002.5 706.435C1002.44 723.462 998.533 779.702 1009.28 792.372C1013.33 797.137 1020.6 798.314 1026.55 798.554C1037.12 798.982 1073.07 800.615 1080.28 793.298C1090.8 782.616 1087.3 723.447 1087.49 706.236C1100.49 706.058 1113.49 706.098 1126.49 706.357C1127.07 713.38 1126.58 728.853 1126.57 736.5C1126.68 758.646 1130.52 789.514 1117.99 808.654C1111.29 818.888 1100.21 824.706 1088.46 827.126C1074.86 829.925 1021.64 830.275 1007.35 827.812C998.765 826.334 990.001 823.338 982.747 818.447C972.306 811.408 966.467 800.698 964.305 788.463C962.953 780.811 961.386 710.571 964.422 706.228Z"/><defs><linearGradient id="gradient_0" gradientUnits="userSpaceOnUse" x1="533.62408" y1="847.53082" x2="618.7641" y2="731.12494"><stop offset="0" stop-color="#EEC992"/><stop offset="1" stop-color="#CADBD6"/></linearGradient></defs><path fill="url(#gradient_0)" transform="matrix(0.446314 0 0 0.446514 0 -3.05176e-05)" d="M647.033 745.588C595.849 777.388 630.967 809.163 603.929 842.471C595.194 853.069 582.65 859.817 568.993 861.268C554.967 862.732 540.94 858.511 530.052 849.549C519.12 840.608 512.243 827.645 510.97 813.58C509.834 800.585 515.089 780.93 524.139 771.831C558.662 737.12 589.884 774.822 627.396 730.905C627.405 735.857 626.724 736.718 630.675 740.752C633.703 743.843 638.902 745.944 643.241 745.797C644.507 745.754 645.771 745.684 647.033 745.588Z"/><path fill="#A0D6E5" transform="matrix(0.446314 0 0 0.446514 0 -3.05176e-05)" d="M638.144 705.128C638.82 687.868 639.638 667.952 654.179 656.403C704.248 616.637 763.146 677.881 719.653 725.798C709.888 736.556 682.781 736.818 668.136 738.38C659.728 739.987 654.877 742.035 647.033 745.588C645.771 745.684 644.507 745.754 643.241 745.797C638.902 745.944 633.703 743.843 630.675 740.752C626.724 736.718 627.405 735.857 627.396 730.905C634.07 720.431 635.051 717.322 638.144 705.128Z"/><path fill="#C5DCDD" transform="matrix(0.446314 0 0 0.446514 0 -3.05176e-05)" d="M638.144 705.128L641.029 703.39C646.071 705.076 660.77 723.78 662.927 728.909C665.098 734.071 664.598 733.249 668.136 738.38C659.728 739.987 654.877 742.035 647.033 745.588C645.771 745.684 644.507 745.754 643.241 745.797C638.902 745.944 633.703 743.843 630.675 740.752C626.724 736.718 627.405 735.857 627.396 730.905C634.07 720.431 635.051 717.322 638.144 705.128Z"/><path fill="#1B5482" transform="matrix(0.446314 0 0 0.446514 0 -3.05176e-05)" d="M811.312 706.011C822.693 705.283 838.706 705.746 850.468 705.789C851.485 730.425 848.386 761.549 852.512 785.552C853.278 790.009 856.852 793.934 859.926 797.187C873.192 801.271 933.367 799.252 952.252 799.3C952.15 805.473 952.71 824.071 950.725 828.249C932.803 828.197 914.881 828.254 896.96 828.42C804.89 829.71 809.681 812.948 810.436 727.235C810.498 720.209 810.317 712.977 811.312 706.011Z"/><path fill="#C1B6C5" transform="matrix(0.446314 0 0 0.446514 0 -3.05176e-05)" d="M661.77 853.632C687.151 848.889 711.548 865.692 716.164 891.096C720.781 916.5 703.856 940.813 678.429 945.302C653.182 949.76 629.078 932.98 624.494 907.755C619.91 882.53 636.569 858.342 661.77 853.632Z"/><path fill="#1B5482" transform="matrix(0.446314 0 0 0.446514 0 -3.05176e-05)" d="M1485.17 874.403C1509.27 874.456 1535.68 868.683 1545.13 896.191C1543.13 904.19 1542.54 905.426 1536.98 910.915C1525.28 918.352 1500.48 919.247 1487.16 916.134C1482.25 914.987 1482.48 878.937 1485.17 874.403ZM1495.01 909.705C1506.2 909.836 1520.33 911.288 1529.77 905.266C1549.23 881.018 1506.83 882.713 1494.94 882.888L1495.01 909.705Z"/><path fill="#1B5482" transform="matrix(0.446314 0 0 0.446514 0 -3.05176e-05)" d="M1255.23 874.494C1269.45 874.322 1312.94 868.632 1308.76 891.727C1307.57 898.284 1300.36 899.838 1295.26 903.059C1298.34 908.993 1306.2 909.897 1309.82 915.512L1309.13 916.945L1305.04 917.945C1294.79 916.847 1289.07 909.941 1281.66 902.969L1261.5 903.21C1261.34 908.704 1262.52 911.78 1260.29 915.778C1256.91 917.252 1254.76 917.205 1252.07 914.868C1250.38 907.11 1251.65 892.92 1251.74 884.538C1251.79 879.037 1251.68 877.761 1255.23 874.494ZM1295.9 893.827C1297.83 889.932 1297.69 891.461 1297.41 887.411C1291.31 880.601 1271.77 883.177 1262.83 883.461C1261.38 887.592 1259.72 893.596 1265.58 894.857C1272.81 896.417 1289.2 896.156 1295.9 893.827Z"/><path fill="#1B5482" transform="matrix(0.446314 0 0 0.446514 0 -3.05176e-05)" d="M1408.14 882.366C1412.1 874.849 1414.74 873.277 1423.15 875.815C1428.36 877.394 1450.81 910.457 1449.15 916.952C1442.69 918.921 1439.01 912.108 1435.8 907.511L1400.44 907.698C1397.71 911.229 1395.39 915.059 1391.51 916.9C1388.71 917.007 1387.58 917.323 1385.14 915.922C1385.18 912.797 1404.8 887.399 1408.14 882.366ZM1406.38 900.235L1430.39 900.334C1428.9 898.09 1420.94 887.697 1420.71 887.077L1417.32 884.325C1413.81 889.719 1410.16 895.024 1406.38 900.235Z"/><path fill="#1B5482" transform="matrix(0.446314 0 0 0.446514 0 -3.05176e-05)" d="M1165.17 875.406C1176.86 872.733 1202.99 876.714 1216.42 874.997C1220.56 874.469 1224.02 875.49 1225.36 879.818C1220.76 883.736 1204.49 881.518 1199.51 886.112L1199.4 889.75C1199.4 897.624 1200.38 909.61 1196.04 915.92C1185.42 919.749 1189 891.071 1189.02 884.007C1180.29 883.197 1166.7 886.062 1165.17 875.406Z"/><path fill="#1B5482" transform="matrix(0.446314 0 0 0.446514 0 -3.05176e-05)" d="M1342.87 874.796C1347.06 874.733 1350.26 874.385 1353.23 877.479C1354.31 884.374 1353.76 909.033 1353.39 916.703C1349.57 916.765 1346.82 917.138 1343.58 915.246C1342.91 912.468 1343.03 880.609 1342.87 874.796Z"/></svg>