<?xml version="1.0" encoding="utf-8" ?><svg xmlns="http://www.w3.org/2000/svg" xmlns:xlink="http://www.w3.org/1999/xlink" width="2496" height="1664" viewBox="0 0 2496 1664"><path fill="white" transform="scale(2 2)" d="M0 0L1248 0L1248 832L0 832L0 0Z"/><path fill="#884D93" transform="scale(2 2)" d="M721.089 351.349C735.347 350.889 758.31 349.338 769.903 358.782C781.465 368.2 781.595 394.494 772.1 405.574C765.141 413.695 755.836 414.28 745.976 415.044C731.552 415.17 707.318 417.176 695.971 407.774C683.851 397.731 683.368 371.761 693.85 360.298C700.798 352.7 711.501 351.893 721.089 351.349Z"/><path fill="white" transform="scale(2 2)" d="M722.303 366.583C725.487 366.477 729.416 366.303 732.689 366.505C738.588 366.857 750.503 365.943 755.314 369.739C761.301 374.463 761.594 390.062 756.07 395.481C752.516 398.966 749.854 398.98 745.418 399.228C736.315 399.483 727.336 399.973 718.191 399.189C710.171 398.673 706.072 393.361 705.884 385.568C705.571 372.645 709.409 367.338 722.303 366.583Z"/><defs><linearGradient id="gradient_0" gradientUnits="userSpaceOnUse" x1="581.47308" y1="358.29358" x2="670.8548" y2="419.28424"><stop offset="0" stop-color="#D66983"/><stop offset="1" stop-color="#A35093"/></linearGradient></defs><path fill="url(#gradient_0)" transform="scale(2 2)" d="M599.28 352.569C611.019 352.59 622.759 352.543 634.497 352.426C641.799 352.377 652.403 351.942 659.373 353.238C682.634 357.565 677.633 396.81 677.353 414.292L657.529 414.245C657.552 406.151 658.627 373.037 654.748 370.893C629.769 357.092 634.506 387.168 634.808 394.338L635 414.336L616.312 414.319C616.316 408.197 617.991 375.319 613.674 370.587C609.894 366.444 594.305 366.149 593.732 377.927C593.167 389.558 593.613 402.181 593.7 414.41L574.023 414.504C574.005 412.16 573.831 409.409 573.967 407.115C575.378 383.219 565.432 354.764 599.28 352.569Z"/><path fill="#544D93" transform="scale(2 2)" d="M789.528 352.815L828.626 352.749C843.575 352.697 869.257 350.125 871.882 370.027C873.933 385.582 867.656 393.086 853.171 395.431C859.413 401.95 866.715 407.729 873.102 414.495L848.994 414.499C844.838 411.162 835.034 401.211 830.603 396.988C827.991 394.58 822.303 389.817 820.874 386.984C822.004 381.255 846.885 387.223 851.526 380.798C855.266 375.621 850.317 368.264 844.642 367.904C832.936 367.162 820.963 367.486 809.217 367.519L809.338 414.374C802.743 414.247 795.849 414.358 789.229 414.369C789.245 394.085 789.012 373.02 789.528 352.815Z"/><path fill="#544D93" transform="scale(2 2)" d="M916.814 352.937C925.227 352.761 934.081 352.859 942.528 352.827C950.599 363.734 958.469 375.936 966.229 387.17C971.377 394.622 980.465 406.679 984.302 414.309C977.328 414.68 969.304 414.526 962.25 414.549C958.921 410.354 955.886 405.159 952.173 400.442L920.998 400.534L928.7 388.007C932.799 387.725 938.019 387.846 942.208 387.829L943.2 387.281C942.447 382.012 933.199 371.235 929.001 368.096C918.297 378.126 905.898 402.246 896.064 414.459L873.971 414.483C882.464 401.332 891.154 388.308 900.037 375.418C904.685 368.7 911.416 358.705 916.814 352.937Z"/><path fill="#E28577" transform="scale(2 2)" d="M543.543 352.849L563.35 352.802C563.66 357.75 563.542 364.224 563.584 369.292C564.147 406.167 561.602 413.789 524.365 415.168C473.909 417.037 480.812 391.452 481.45 352.875L501.206 352.872C501.03 364.132 499.363 385.769 504.754 395.736C507.41 400.648 537.292 399.953 539.876 396.036C545.416 387.635 543.597 363.254 543.543 352.849Z"/><defs><linearGradient id="gradient_1" gradientUnits="userSpaceOnUse" x1="267.44247" y1="422.36835" x2="319.81616" y2="352.22577"><stop offset="0" stop-color="#ECC992"/><stop offset="1" stop-color="#BCDDE4"/></linearGradient></defs><path fill="url(#gradient_1)" transform="scale(2 2)" d="M319.123 350.441C327.069 355.463 332.656 367.993 334.959 369.021C288.443 378.599 326.198 419.446 286.925 430.23C284.819 430.808 280.827 430.947 278.714 430.44C276.766 430.193 274.852 429.733 273.004 429.068C265.14 426.248 260.854 421.613 257.451 414.266C255.722 409.219 255.032 404.682 256.1 399.344C264.285 358.426 311.102 397.137 319.123 350.441Z"/><path fill="#F5B66B" transform="scale(2 2)" d="M257.451 414.266C275.159 412.181 269.519 424.313 278.714 430.44C276.766 430.193 274.852 429.733 273.004 429.068C265.14 426.248 260.854 421.613 257.451 414.266Z"/><path fill="#F5B66B" transform="scale(2 2)" d="M405.564 353.019L425.249 352.829C425.362 357.48 425.223 363.794 425.344 367.957C426.026 391.423 420.641 401.675 449.802 399.438C455.216 399.023 469.676 399.429 475.899 399.643L475.947 414.434C459.179 414.479 423.939 417.861 411.428 407.279C402.461 399.694 405.391 364.665 405.564 353.019Z"/><path fill="#A1D4E2" transform="scale(2 2)" d="M319.123 350.441C319.844 341.588 320.323 334.029 327.581 327.679C332.477 323.395 339.296 321.275 345.763 321.776C352.058 322.255 357.901 325.225 361.998 330.028C365.974 334.692 367.891 340.768 367.314 346.87C365.5 366.772 350.795 367.786 334.959 369.021C332.656 367.993 327.069 355.463 319.123 350.441Z"/><path fill="#BFB4C4" transform="scale(2 2)" d="M334.492 426.362C347.313 425.987 358.025 436.047 358.459 448.869C358.893 461.691 348.886 472.452 336.069 472.946C323.168 473.444 312.322 463.353 311.885 450.447C311.448 437.54 321.587 426.739 334.492 426.362Z"/><path fill="#235486" transform="scale(2 2)" d="M742.384 437.015C751.78 436.894 762.958 435.767 770.359 442.716C774.77 446.857 772.003 451.952 768.472 455.513C760.645 459.766 751.36 459.134 742.798 458.182C741.237 451.318 741.374 443.949 742.384 437.015Z"/><path fill="white" transform="scale(2 2)" d="M747.604 441.314C754.2 441.159 772.875 440.407 765.285 452.093C759.966 455.615 753.839 454.848 747.607 454.74L747.604 441.314Z"/><path fill="#235486" transform="scale(2 2)" d="M627.259 437.046C630.537 436.95 633.815 436.882 637.094 436.842C648.017 436.747 665.671 441.975 647.759 451.747C650.226 453.763 653.557 455.315 654.276 458.252L653.017 459.496C647.36 457.973 645.073 455.31 640.575 451.551C624.915 451.421 634.181 452.54 629.17 458.752L627.847 458.779C627.117 458.123 625.912 457.261 625.902 456.295C625.85 451.019 624.675 441.492 627.259 437.046Z"/><path fill="white" transform="scale(2 2)" d="M631.491 441.509C636.209 441.329 644.796 440.258 648.185 443.311C648.841 445.351 648.735 444.553 647.848 446.957C647.333 447.073 646.815 447.175 646.295 447.265C641.959 448.01 635.507 448.836 631.849 446.294C630.766 443.983 631.146 444.398 631.491 441.509Z"/><path fill="#235486" transform="scale(2 2)" d="M706.94 437.077C707.452 437.067 709.078 437.046 709.482 437.136C715.462 438.468 724.406 452.371 723.6 457.841L722.575 458.303C720.393 457.445 719.55 455.752 718.136 453.775L710.415 453.885L700.545 453.92C699.984 454.594 699.417 455.262 698.844 455.924C696.901 458.163 696.817 458.268 694.237 458.452L693.685 457.522C694.318 453.272 703.879 440.948 706.94 437.077Z"/><path fill="white" transform="scale(2 2)" d="M708.65 442.251C710.651 443.382 714.115 447.243 713.55 449.819L711.293 450.077C708.706 450.086 706.701 450.459 704.755 449.172C704.765 447.178 707.37 444.068 708.65 442.251Z"/><path fill="#235486" transform="scale(2 2)" d="M583.608 437.259C587.506 437.056 609.917 437.073 612.023 438.669C611.432 441.03 602.85 441.192 600.739 442.883C599.575 443.814 599.892 444.336 599.789 446.019C599.831 449.426 600.177 455.806 597.245 458.092L596.107 457.264C593.415 451.693 594.098 448.111 594.256 441.939C590.987 441.984 583.62 442.481 582.79 438.485L583.608 437.259Z"/><path fill="#235486" transform="scale(2 2)" d="M671.588 436.748C673.652 437.05 674.138 436.978 675.809 438.096C678.404 442.517 676.962 453.396 676.653 458.69C674.799 458.571 673.973 458.747 672.678 457.592C670.496 453.665 671.504 441.731 671.588 436.748Z"/></svg>